<mxfile host="app.diagrams.net" agent="Mozilla/5.0 (Windows NT 10.0; Win64; x64) AppleWebKit/537.36 (KHTML, like Gecko) Chrome/136.0.0.0 Safari/537.36 Edg/136.0.0.0" version="27.0.6">
  <diagram name="Page-1" id="B4dCi_XhZmfEHP5CkYuL">
    <mxGraphModel dx="3148" dy="2367" grid="1" gridSize="10" guides="1" tooltips="1" connect="1" arrows="1" fold="1" page="1" pageScale="1" pageWidth="850" pageHeight="1100" math="0" shadow="0">
      <root>
        <mxCell id="0" />
        <mxCell id="1" parent="0" />
        <mxCell id="q-2I_O6ID9gLPZa3Og0b-1" value="Hà Nội" style="rounded=0;whiteSpace=wrap;html=1;" vertex="1" parent="1">
          <mxGeometry x="360" y="-40" width="120" height="60" as="geometry" />
        </mxCell>
        <mxCell id="q-2I_O6ID9gLPZa3Og0b-2" value="TPHCM" style="rounded=0;whiteSpace=wrap;html=1;" vertex="1" parent="1">
          <mxGeometry x="360" y="180" width="120" height="60" as="geometry" />
        </mxCell>
        <mxCell id="q-2I_O6ID9gLPZa3Og0b-3" value="Hải Phòng" style="rounded=0;whiteSpace=wrap;html=1;" vertex="1" parent="1">
          <mxGeometry x="360" y="360" width="120" height="60" as="geometry" />
        </mxCell>
        <mxCell id="q-2I_O6ID9gLPZa3Og0b-4" value="Chi nhánh" style="rounded=0;whiteSpace=wrap;html=1;" vertex="1" parent="1">
          <mxGeometry x="-40" y="170" width="120" height="60" as="geometry" />
        </mxCell>
        <mxCell id="q-2I_O6ID9gLPZa3Og0b-7" value="" style="endArrow=none;html=1;rounded=0;exitX=1;exitY=0.25;exitDx=0;exitDy=0;entryX=0.25;entryY=1;entryDx=0;entryDy=0;" edge="1" parent="1" source="q-2I_O6ID9gLPZa3Og0b-4" target="q-2I_O6ID9gLPZa3Og0b-1">
          <mxGeometry width="50" height="50" relative="1" as="geometry">
            <mxPoint x="380" y="310" as="sourcePoint" />
            <mxPoint x="430" y="260" as="targetPoint" />
          </mxGeometry>
        </mxCell>
        <mxCell id="q-2I_O6ID9gLPZa3Og0b-8" value="" style="endArrow=none;html=1;rounded=0;exitX=1;exitY=0.5;exitDx=0;exitDy=0;entryX=0;entryY=0.5;entryDx=0;entryDy=0;" edge="1" parent="1" source="q-2I_O6ID9gLPZa3Og0b-4" target="q-2I_O6ID9gLPZa3Og0b-2">
          <mxGeometry width="50" height="50" relative="1" as="geometry">
            <mxPoint x="380" y="310" as="sourcePoint" />
            <mxPoint x="430" y="260" as="targetPoint" />
          </mxGeometry>
        </mxCell>
        <mxCell id="q-2I_O6ID9gLPZa3Og0b-9" value="" style="endArrow=none;html=1;rounded=0;entryX=0;entryY=0.5;entryDx=0;entryDy=0;exitX=1;exitY=0.5;exitDx=0;exitDy=0;" edge="1" parent="1" source="q-2I_O6ID9gLPZa3Og0b-4" target="q-2I_O6ID9gLPZa3Og0b-3">
          <mxGeometry width="50" height="50" relative="1" as="geometry">
            <mxPoint x="280" y="230" as="sourcePoint" />
            <mxPoint x="430" y="260" as="targetPoint" />
          </mxGeometry>
        </mxCell>
        <mxCell id="q-2I_O6ID9gLPZa3Og0b-10" value="Nhân viên" style="rounded=0;whiteSpace=wrap;html=1;" vertex="1" parent="1">
          <mxGeometry x="-90" y="-40" width="120" height="60" as="geometry" />
        </mxCell>
        <mxCell id="q-2I_O6ID9gLPZa3Og0b-11" value="Nhân viên 1" style="rounded=0;whiteSpace=wrap;html=1;" vertex="1" parent="1">
          <mxGeometry x="70" y="-130" width="120" height="60" as="geometry" />
        </mxCell>
        <mxCell id="q-2I_O6ID9gLPZa3Og0b-12" value="Nhân viên 2" style="rounded=0;whiteSpace=wrap;html=1;" vertex="1" parent="1">
          <mxGeometry x="70" y="-40" width="120" height="60" as="geometry" />
        </mxCell>
        <mxCell id="q-2I_O6ID9gLPZa3Og0b-13" value="Nhân viên 3" style="rounded=0;whiteSpace=wrap;html=1;" vertex="1" parent="1">
          <mxGeometry x="70" y="40" width="120" height="60" as="geometry" />
        </mxCell>
        <mxCell id="q-2I_O6ID9gLPZa3Og0b-14" value="" style="endArrow=none;html=1;rounded=0;exitX=1;exitY=0.25;exitDx=0;exitDy=0;" edge="1" parent="1" source="q-2I_O6ID9gLPZa3Og0b-10" target="q-2I_O6ID9gLPZa3Og0b-11">
          <mxGeometry width="50" height="50" relative="1" as="geometry">
            <mxPoint x="380" y="170" as="sourcePoint" />
            <mxPoint x="430" y="120" as="targetPoint" />
          </mxGeometry>
        </mxCell>
        <mxCell id="q-2I_O6ID9gLPZa3Og0b-15" value="" style="endArrow=none;html=1;rounded=0;exitX=1;exitY=0.5;exitDx=0;exitDy=0;" edge="1" parent="1" source="q-2I_O6ID9gLPZa3Og0b-10" target="q-2I_O6ID9gLPZa3Og0b-12">
          <mxGeometry width="50" height="50" relative="1" as="geometry">
            <mxPoint x="380" y="170" as="sourcePoint" />
            <mxPoint x="430" y="120" as="targetPoint" />
          </mxGeometry>
        </mxCell>
        <mxCell id="q-2I_O6ID9gLPZa3Og0b-16" value="" style="endArrow=none;html=1;rounded=0;" edge="1" parent="1" source="q-2I_O6ID9gLPZa3Og0b-10" target="q-2I_O6ID9gLPZa3Og0b-12">
          <mxGeometry width="50" height="50" relative="1" as="geometry">
            <mxPoint x="380" y="170" as="sourcePoint" />
            <mxPoint x="430" y="120" as="targetPoint" />
          </mxGeometry>
        </mxCell>
        <mxCell id="q-2I_O6ID9gLPZa3Og0b-19" value="" style="endArrow=none;html=1;rounded=0;entryX=0;entryY=0.75;entryDx=0;entryDy=0;" edge="1" parent="1" source="q-2I_O6ID9gLPZa3Og0b-10" target="q-2I_O6ID9gLPZa3Og0b-13">
          <mxGeometry width="50" height="50" relative="1" as="geometry">
            <mxPoint x="380" y="170" as="sourcePoint" />
            <mxPoint x="430" y="120" as="targetPoint" />
          </mxGeometry>
        </mxCell>
        <mxCell id="q-2I_O6ID9gLPZa3Og0b-20" value="Sân bay" style="rounded=0;whiteSpace=wrap;html=1;" vertex="1" parent="1">
          <mxGeometry x="-100" y="360" width="120" height="60" as="geometry" />
        </mxCell>
        <mxCell id="q-2I_O6ID9gLPZa3Og0b-21" value="Thống kê" style="rounded=0;whiteSpace=wrap;html=1;" vertex="1" parent="1">
          <mxGeometry x="-100" y="-270" width="120" height="60" as="geometry" />
        </mxCell>
        <mxCell id="q-2I_O6ID9gLPZa3Og0b-22" value="Khách hàng" style="rounded=0;whiteSpace=wrap;html=1;" vertex="1" parent="1">
          <mxGeometry x="850" y="-270" width="120" height="60" as="geometry" />
        </mxCell>
        <mxCell id="q-2I_O6ID9gLPZa3Og0b-23" value="Thông tin vé" style="rounded=0;whiteSpace=wrap;html=1;" vertex="1" parent="1">
          <mxGeometry x="850" y="-30" width="120" height="60" as="geometry" />
        </mxCell>
        <mxCell id="q-2I_O6ID9gLPZa3Og0b-24" value="Đường bay" style="rounded=0;whiteSpace=wrap;html=1;" vertex="1" parent="1">
          <mxGeometry x="-130" y="580" width="120" height="60" as="geometry" />
        </mxCell>
        <mxCell id="q-2I_O6ID9gLPZa3Og0b-25" value="Chuyến bay" style="rounded=0;whiteSpace=wrap;html=1;" vertex="1" parent="1">
          <mxGeometry x="890" y="180" width="120" height="60" as="geometry" />
        </mxCell>
        <mxCell id="q-2I_O6ID9gLPZa3Og0b-26" value="Máy bay" style="rounded=0;whiteSpace=wrap;html=1;" vertex="1" parent="1">
          <mxGeometry x="850" y="610" width="120" height="60" as="geometry" />
        </mxCell>
        <mxCell id="q-2I_O6ID9gLPZa3Og0b-27" value="Sân bay 1" style="rounded=0;whiteSpace=wrap;html=1;" vertex="1" parent="1">
          <mxGeometry x="70" y="310" width="120" height="60" as="geometry" />
        </mxCell>
        <mxCell id="q-2I_O6ID9gLPZa3Og0b-28" value="Sân bay 2" style="rounded=0;whiteSpace=wrap;html=1;" vertex="1" parent="1">
          <mxGeometry x="70" y="390" width="120" height="60" as="geometry" />
        </mxCell>
        <mxCell id="q-2I_O6ID9gLPZa3Og0b-29" value="Sân bay 3" style="rounded=0;whiteSpace=wrap;html=1;" vertex="1" parent="1">
          <mxGeometry x="40" y="480" width="120" height="60" as="geometry" />
        </mxCell>
        <mxCell id="q-2I_O6ID9gLPZa3Og0b-30" value="" style="endArrow=none;html=1;rounded=0;exitX=1;exitY=0.5;exitDx=0;exitDy=0;" edge="1" parent="1" source="q-2I_O6ID9gLPZa3Og0b-20" target="q-2I_O6ID9gLPZa3Og0b-27">
          <mxGeometry width="50" height="50" relative="1" as="geometry">
            <mxPoint x="380" y="120" as="sourcePoint" />
            <mxPoint x="430" y="70" as="targetPoint" />
          </mxGeometry>
        </mxCell>
        <mxCell id="q-2I_O6ID9gLPZa3Og0b-31" value="" style="endArrow=none;html=1;rounded=0;" edge="1" parent="1" source="q-2I_O6ID9gLPZa3Og0b-20" target="q-2I_O6ID9gLPZa3Og0b-28">
          <mxGeometry width="50" height="50" relative="1" as="geometry">
            <mxPoint x="380" y="400" as="sourcePoint" />
            <mxPoint x="430" y="350" as="targetPoint" />
          </mxGeometry>
        </mxCell>
        <mxCell id="q-2I_O6ID9gLPZa3Og0b-32" value="" style="endArrow=none;html=1;rounded=0;" edge="1" parent="1" source="q-2I_O6ID9gLPZa3Og0b-20" target="q-2I_O6ID9gLPZa3Og0b-29">
          <mxGeometry width="50" height="50" relative="1" as="geometry">
            <mxPoint x="380" y="640" as="sourcePoint" />
            <mxPoint x="430" y="590" as="targetPoint" />
          </mxGeometry>
        </mxCell>
        <mxCell id="q-2I_O6ID9gLPZa3Og0b-33" value="Thông tin vé 1" style="rounded=0;whiteSpace=wrap;html=1;" vertex="1" parent="1">
          <mxGeometry x="640" y="-130" width="120" height="60" as="geometry" />
        </mxCell>
        <mxCell id="q-2I_O6ID9gLPZa3Og0b-34" value="Thông tin vé 3" style="rounded=0;whiteSpace=wrap;html=1;" vertex="1" parent="1">
          <mxGeometry x="640" y="70" width="120" height="60" as="geometry" />
        </mxCell>
        <mxCell id="q-2I_O6ID9gLPZa3Og0b-35" value="Thông tin vé 2" style="rounded=0;whiteSpace=wrap;html=1;" vertex="1" parent="1">
          <mxGeometry x="650" y="-30" width="120" height="60" as="geometry" />
        </mxCell>
        <mxCell id="q-2I_O6ID9gLPZa3Og0b-36" value="" style="endArrow=none;html=1;rounded=0;entryX=0;entryY=0.5;entryDx=0;entryDy=0;exitX=1;exitY=0.25;exitDx=0;exitDy=0;" edge="1" parent="1" source="q-2I_O6ID9gLPZa3Og0b-33" target="q-2I_O6ID9gLPZa3Og0b-23">
          <mxGeometry width="50" height="50" relative="1" as="geometry">
            <mxPoint x="380" y="70" as="sourcePoint" />
            <mxPoint x="430" y="20" as="targetPoint" />
          </mxGeometry>
        </mxCell>
        <mxCell id="q-2I_O6ID9gLPZa3Og0b-37" value="" style="endArrow=none;html=1;rounded=0;entryX=0;entryY=0.5;entryDx=0;entryDy=0;exitX=1;exitY=0.5;exitDx=0;exitDy=0;" edge="1" parent="1" source="q-2I_O6ID9gLPZa3Og0b-35" target="q-2I_O6ID9gLPZa3Og0b-23">
          <mxGeometry width="50" height="50" relative="1" as="geometry">
            <mxPoint x="380" y="70" as="sourcePoint" />
            <mxPoint x="430" y="20" as="targetPoint" />
          </mxGeometry>
        </mxCell>
        <mxCell id="q-2I_O6ID9gLPZa3Og0b-38" value="" style="endArrow=none;html=1;rounded=0;exitX=1;exitY=0.25;exitDx=0;exitDy=0;entryX=0;entryY=0.5;entryDx=0;entryDy=0;" edge="1" parent="1" source="q-2I_O6ID9gLPZa3Og0b-34" target="q-2I_O6ID9gLPZa3Og0b-23">
          <mxGeometry width="50" height="50" relative="1" as="geometry">
            <mxPoint x="380" y="70" as="sourcePoint" />
            <mxPoint x="430" y="20" as="targetPoint" />
          </mxGeometry>
        </mxCell>
        <mxCell id="q-2I_O6ID9gLPZa3Og0b-39" value="Chuyến bay 3" style="rounded=0;whiteSpace=wrap;html=1;" vertex="1" parent="1">
          <mxGeometry x="700" y="350" width="120" height="60" as="geometry" />
        </mxCell>
        <mxCell id="q-2I_O6ID9gLPZa3Og0b-40" value="Chuyến bay 2" style="rounded=0;whiteSpace=wrap;html=1;" vertex="1" parent="1">
          <mxGeometry x="640" y="250" width="120" height="60" as="geometry" />
        </mxCell>
        <mxCell id="q-2I_O6ID9gLPZa3Og0b-41" value="Chuyến bay 1" style="rounded=0;whiteSpace=wrap;html=1;" vertex="1" parent="1">
          <mxGeometry x="640" y="160" width="120" height="60" as="geometry" />
        </mxCell>
        <mxCell id="q-2I_O6ID9gLPZa3Og0b-42" value="" style="endArrow=none;html=1;rounded=0;" edge="1" parent="1" source="q-2I_O6ID9gLPZa3Og0b-41" target="q-2I_O6ID9gLPZa3Og0b-25">
          <mxGeometry width="50" height="50" relative="1" as="geometry">
            <mxPoint x="370" y="270" as="sourcePoint" />
            <mxPoint x="420" y="220" as="targetPoint" />
          </mxGeometry>
        </mxCell>
        <mxCell id="q-2I_O6ID9gLPZa3Og0b-43" value="" style="endArrow=none;html=1;rounded=0;" edge="1" parent="1" source="q-2I_O6ID9gLPZa3Og0b-40" target="q-2I_O6ID9gLPZa3Og0b-25">
          <mxGeometry width="50" height="50" relative="1" as="geometry">
            <mxPoint x="370" y="270" as="sourcePoint" />
            <mxPoint x="420" y="220" as="targetPoint" />
          </mxGeometry>
        </mxCell>
        <mxCell id="q-2I_O6ID9gLPZa3Og0b-44" value="" style="endArrow=none;html=1;rounded=0;exitX=0.979;exitY=0.383;exitDx=0;exitDy=0;exitPerimeter=0;" edge="1" parent="1" source="q-2I_O6ID9gLPZa3Og0b-39" target="q-2I_O6ID9gLPZa3Og0b-25">
          <mxGeometry width="50" height="50" relative="1" as="geometry">
            <mxPoint x="370" y="270" as="sourcePoint" />
            <mxPoint x="420" y="220" as="targetPoint" />
          </mxGeometry>
        </mxCell>
        <mxCell id="q-2I_O6ID9gLPZa3Og0b-45" value="Thống kê 1" style="rounded=0;whiteSpace=wrap;html=1;" vertex="1" parent="1">
          <mxGeometry x="110" y="-450" width="120" height="60" as="geometry" />
        </mxCell>
        <mxCell id="q-2I_O6ID9gLPZa3Og0b-46" value="Thống kê 2" style="rounded=0;whiteSpace=wrap;html=1;" vertex="1" parent="1">
          <mxGeometry x="100" y="-350" width="120" height="60" as="geometry" />
        </mxCell>
        <mxCell id="q-2I_O6ID9gLPZa3Og0b-47" value="Thống kê 3" style="rounded=0;whiteSpace=wrap;html=1;" vertex="1" parent="1">
          <mxGeometry x="90" y="-240" width="120" height="60" as="geometry" />
        </mxCell>
        <mxCell id="q-2I_O6ID9gLPZa3Og0b-48" value="Khách hàng 3" style="rounded=0;whiteSpace=wrap;html=1;" vertex="1" parent="1">
          <mxGeometry x="630" y="-260" width="120" height="60" as="geometry" />
        </mxCell>
        <mxCell id="q-2I_O6ID9gLPZa3Og0b-49" value="Khách hàng 2" style="rounded=0;whiteSpace=wrap;html=1;" vertex="1" parent="1">
          <mxGeometry x="610" y="-360" width="120" height="60" as="geometry" />
        </mxCell>
        <mxCell id="q-2I_O6ID9gLPZa3Og0b-50" value="Khách hàng 1" style="rounded=0;whiteSpace=wrap;html=1;" vertex="1" parent="1">
          <mxGeometry x="600" y="-450" width="120" height="60" as="geometry" />
        </mxCell>
        <mxCell id="q-2I_O6ID9gLPZa3Og0b-51" value="Máy bay 2" style="rounded=0;whiteSpace=wrap;html=1;" vertex="1" parent="1">
          <mxGeometry x="690" y="620" width="120" height="60" as="geometry" />
        </mxCell>
        <mxCell id="q-2I_O6ID9gLPZa3Og0b-52" value="Máy bay 1" style="rounded=0;whiteSpace=wrap;html=1;" vertex="1" parent="1">
          <mxGeometry x="710" y="510" width="120" height="60" as="geometry" />
        </mxCell>
        <mxCell id="q-2I_O6ID9gLPZa3Og0b-53" value="Máy bay 3" style="rounded=0;whiteSpace=wrap;html=1;" vertex="1" parent="1">
          <mxGeometry x="710" y="740" width="120" height="60" as="geometry" />
        </mxCell>
        <mxCell id="q-2I_O6ID9gLPZa3Og0b-54" value="" style="endArrow=none;html=1;rounded=0;exitX=1;exitY=0.25;exitDx=0;exitDy=0;" edge="1" parent="1" source="q-2I_O6ID9gLPZa3Og0b-48" target="q-2I_O6ID9gLPZa3Og0b-22">
          <mxGeometry width="50" height="50" relative="1" as="geometry">
            <mxPoint x="370" y="-650" as="sourcePoint" />
            <mxPoint x="420" y="-700" as="targetPoint" />
          </mxGeometry>
        </mxCell>
        <mxCell id="q-2I_O6ID9gLPZa3Og0b-55" value="" style="endArrow=none;html=1;rounded=0;" edge="1" parent="1" source="q-2I_O6ID9gLPZa3Og0b-49" target="q-2I_O6ID9gLPZa3Og0b-22">
          <mxGeometry width="50" height="50" relative="1" as="geometry">
            <mxPoint x="370" y="-650" as="sourcePoint" />
            <mxPoint x="420" y="-700" as="targetPoint" />
          </mxGeometry>
        </mxCell>
        <mxCell id="q-2I_O6ID9gLPZa3Og0b-56" value="" style="endArrow=none;html=1;rounded=0;entryX=0;entryY=0.25;entryDx=0;entryDy=0;exitX=1;exitY=0.5;exitDx=0;exitDy=0;" edge="1" parent="1" source="q-2I_O6ID9gLPZa3Og0b-50" target="q-2I_O6ID9gLPZa3Og0b-22">
          <mxGeometry width="50" height="50" relative="1" as="geometry">
            <mxPoint x="370" y="-650" as="sourcePoint" />
            <mxPoint x="420" y="-700" as="targetPoint" />
          </mxGeometry>
        </mxCell>
        <mxCell id="q-2I_O6ID9gLPZa3Og0b-57" value="" style="endArrow=none;html=1;rounded=0;exitX=1;exitY=0.5;exitDx=0;exitDy=0;entryX=0;entryY=0.5;entryDx=0;entryDy=0;" edge="1" parent="1" source="q-2I_O6ID9gLPZa3Og0b-21" target="q-2I_O6ID9gLPZa3Og0b-45">
          <mxGeometry width="50" height="50" relative="1" as="geometry">
            <mxPoint x="360" y="-310" as="sourcePoint" />
            <mxPoint x="410" y="-360" as="targetPoint" />
          </mxGeometry>
        </mxCell>
        <mxCell id="q-2I_O6ID9gLPZa3Og0b-58" value="" style="endArrow=none;html=1;rounded=0;exitX=1;exitY=0.5;exitDx=0;exitDy=0;entryX=0;entryY=1;entryDx=0;entryDy=0;" edge="1" parent="1" source="q-2I_O6ID9gLPZa3Og0b-21" target="q-2I_O6ID9gLPZa3Og0b-46">
          <mxGeometry width="50" height="50" relative="1" as="geometry">
            <mxPoint x="360" y="-310" as="sourcePoint" />
            <mxPoint x="100" y="-410" as="targetPoint" />
          </mxGeometry>
        </mxCell>
        <mxCell id="q-2I_O6ID9gLPZa3Og0b-59" value="" style="endArrow=none;html=1;rounded=0;exitX=0.917;exitY=0.667;exitDx=0;exitDy=0;exitPerimeter=0;" edge="1" parent="1" source="q-2I_O6ID9gLPZa3Og0b-21" target="q-2I_O6ID9gLPZa3Og0b-47">
          <mxGeometry width="50" height="50" relative="1" as="geometry">
            <mxPoint x="360" y="-310" as="sourcePoint" />
            <mxPoint x="410" y="-360" as="targetPoint" />
          </mxGeometry>
        </mxCell>
        <mxCell id="q-2I_O6ID9gLPZa3Og0b-60" value="" style="endArrow=none;html=1;rounded=0;entryX=0.083;entryY=0.333;entryDx=0;entryDy=0;entryPerimeter=0;exitX=1;exitY=0.5;exitDx=0;exitDy=0;" edge="1" parent="1" source="q-2I_O6ID9gLPZa3Og0b-52" target="q-2I_O6ID9gLPZa3Og0b-26">
          <mxGeometry width="50" height="50" relative="1" as="geometry">
            <mxPoint x="410" y="1030" as="sourcePoint" />
            <mxPoint x="460" y="980" as="targetPoint" />
          </mxGeometry>
        </mxCell>
        <mxCell id="q-2I_O6ID9gLPZa3Og0b-61" value="" style="endArrow=none;html=1;rounded=0;" edge="1" parent="1" source="q-2I_O6ID9gLPZa3Og0b-51" target="q-2I_O6ID9gLPZa3Og0b-26">
          <mxGeometry width="50" height="50" relative="1" as="geometry">
            <mxPoint x="410" y="730" as="sourcePoint" />
            <mxPoint x="460" y="680" as="targetPoint" />
          </mxGeometry>
        </mxCell>
        <mxCell id="q-2I_O6ID9gLPZa3Og0b-62" value="" style="endArrow=none;html=1;rounded=0;exitX=0.898;exitY=0.079;exitDx=0;exitDy=0;exitPerimeter=0;" edge="1" parent="1" source="q-2I_O6ID9gLPZa3Og0b-53" target="q-2I_O6ID9gLPZa3Og0b-26">
          <mxGeometry width="50" height="50" relative="1" as="geometry">
            <mxPoint x="410" y="730" as="sourcePoint" />
            <mxPoint x="460" y="680" as="targetPoint" />
          </mxGeometry>
        </mxCell>
        <mxCell id="q-2I_O6ID9gLPZa3Og0b-63" value="" style="endArrow=none;html=1;rounded=0;exitX=1;exitY=0.5;exitDx=0;exitDy=0;entryX=0;entryY=0.5;entryDx=0;entryDy=0;" edge="1" parent="1" source="q-2I_O6ID9gLPZa3Og0b-45" target="q-2I_O6ID9gLPZa3Og0b-1">
          <mxGeometry width="50" height="50" relative="1" as="geometry">
            <mxPoint x="410" y="-350" as="sourcePoint" />
            <mxPoint x="460" y="-400" as="targetPoint" />
          </mxGeometry>
        </mxCell>
        <mxCell id="q-2I_O6ID9gLPZa3Og0b-64" value="Đường bay 1" style="rounded=0;whiteSpace=wrap;html=1;" vertex="1" parent="1">
          <mxGeometry x="70" y="570" width="120" height="60" as="geometry" />
        </mxCell>
        <mxCell id="q-2I_O6ID9gLPZa3Og0b-65" value="Đường bay 2" style="rounded=0;whiteSpace=wrap;html=1;" vertex="1" parent="1">
          <mxGeometry x="70" y="670" width="120" height="60" as="geometry" />
        </mxCell>
        <mxCell id="q-2I_O6ID9gLPZa3Og0b-66" value="Đường bay 3" style="rounded=0;whiteSpace=wrap;html=1;" vertex="1" parent="1">
          <mxGeometry x="60" y="770" width="120" height="60" as="geometry" />
        </mxCell>
        <mxCell id="q-2I_O6ID9gLPZa3Og0b-67" value="" style="endArrow=none;html=1;rounded=0;exitX=1;exitY=0.5;exitDx=0;exitDy=0;entryX=0;entryY=0.5;entryDx=0;entryDy=0;" edge="1" parent="1" source="q-2I_O6ID9gLPZa3Og0b-24" target="q-2I_O6ID9gLPZa3Og0b-64">
          <mxGeometry width="50" height="50" relative="1" as="geometry">
            <mxPoint x="410" y="950" as="sourcePoint" />
            <mxPoint x="460" y="900" as="targetPoint" />
          </mxGeometry>
        </mxCell>
        <mxCell id="q-2I_O6ID9gLPZa3Og0b-68" value="" style="endArrow=none;html=1;rounded=0;exitX=1;exitY=0.5;exitDx=0;exitDy=0;entryX=0.083;entryY=0.5;entryDx=0;entryDy=0;entryPerimeter=0;" edge="1" parent="1" source="q-2I_O6ID9gLPZa3Og0b-24" target="q-2I_O6ID9gLPZa3Og0b-65">
          <mxGeometry width="50" height="50" relative="1" as="geometry">
            <mxPoint x="410" y="950" as="sourcePoint" />
            <mxPoint x="460" y="900" as="targetPoint" />
          </mxGeometry>
        </mxCell>
        <mxCell id="q-2I_O6ID9gLPZa3Og0b-69" value="" style="endArrow=none;html=1;rounded=0;exitX=1;exitY=0.5;exitDx=0;exitDy=0;entryX=0;entryY=0.5;entryDx=0;entryDy=0;" edge="1" parent="1" source="q-2I_O6ID9gLPZa3Og0b-24" target="q-2I_O6ID9gLPZa3Og0b-66">
          <mxGeometry width="50" height="50" relative="1" as="geometry">
            <mxPoint x="410" y="950" as="sourcePoint" />
            <mxPoint x="460" y="900" as="targetPoint" />
          </mxGeometry>
        </mxCell>
        <mxCell id="q-2I_O6ID9gLPZa3Og0b-70" value="" style="endArrow=none;html=1;rounded=0;entryX=0;entryY=0.5;entryDx=0;entryDy=0;" edge="1" parent="1" source="q-2I_O6ID9gLPZa3Og0b-1" target="q-2I_O6ID9gLPZa3Og0b-50">
          <mxGeometry width="50" height="50" relative="1" as="geometry">
            <mxPoint x="390" y="-240" as="sourcePoint" />
            <mxPoint x="440" y="-290" as="targetPoint" />
          </mxGeometry>
        </mxCell>
        <mxCell id="q-2I_O6ID9gLPZa3Og0b-71" value="" style="endArrow=none;html=1;rounded=0;entryX=0;entryY=0.5;entryDx=0;entryDy=0;exitX=1;exitY=0.5;exitDx=0;exitDy=0;" edge="1" parent="1" source="q-2I_O6ID9gLPZa3Og0b-1" target="q-2I_O6ID9gLPZa3Og0b-33">
          <mxGeometry width="50" height="50" relative="1" as="geometry">
            <mxPoint x="390" y="30" as="sourcePoint" />
            <mxPoint x="440" y="-20" as="targetPoint" />
          </mxGeometry>
        </mxCell>
        <mxCell id="q-2I_O6ID9gLPZa3Og0b-72" value="" style="endArrow=none;html=1;rounded=0;exitX=1;exitY=0.75;exitDx=0;exitDy=0;entryX=0;entryY=0.5;entryDx=0;entryDy=0;" edge="1" parent="1" source="q-2I_O6ID9gLPZa3Og0b-11" target="q-2I_O6ID9gLPZa3Og0b-1">
          <mxGeometry width="50" height="50" relative="1" as="geometry">
            <mxPoint x="390" y="100" as="sourcePoint" />
            <mxPoint x="440" y="50" as="targetPoint" />
          </mxGeometry>
        </mxCell>
        <mxCell id="q-2I_O6ID9gLPZa3Og0b-73" value="" style="endArrow=none;html=1;rounded=0;entryX=0;entryY=0.5;entryDx=0;entryDy=0;exitX=1;exitY=1;exitDx=0;exitDy=0;" edge="1" parent="1" source="q-2I_O6ID9gLPZa3Og0b-1" target="q-2I_O6ID9gLPZa3Og0b-41">
          <mxGeometry width="50" height="50" relative="1" as="geometry">
            <mxPoint x="390" y="230" as="sourcePoint" />
            <mxPoint x="440" y="180" as="targetPoint" />
          </mxGeometry>
        </mxCell>
        <mxCell id="q-2I_O6ID9gLPZa3Og0b-74" value="" style="endArrow=none;html=1;rounded=0;exitX=1;exitY=0.5;exitDx=0;exitDy=0;entryX=0;entryY=0.75;entryDx=0;entryDy=0;" edge="1" parent="1" source="q-2I_O6ID9gLPZa3Og0b-27" target="q-2I_O6ID9gLPZa3Og0b-1">
          <mxGeometry width="50" height="50" relative="1" as="geometry">
            <mxPoint x="370" y="290" as="sourcePoint" />
            <mxPoint x="420" y="240" as="targetPoint" />
          </mxGeometry>
        </mxCell>
        <mxCell id="q-2I_O6ID9gLPZa3Og0b-75" value="" style="endArrow=none;html=1;rounded=0;exitX=1;exitY=0.5;exitDx=0;exitDy=0;" edge="1" parent="1" source="q-2I_O6ID9gLPZa3Og0b-28">
          <mxGeometry width="50" height="50" relative="1" as="geometry">
            <mxPoint x="370" y="290" as="sourcePoint" />
            <mxPoint x="420" y="240" as="targetPoint" />
          </mxGeometry>
        </mxCell>
        <mxCell id="q-2I_O6ID9gLPZa3Og0b-76" value="" style="endArrow=none;html=1;rounded=0;" edge="1" parent="1" target="q-2I_O6ID9gLPZa3Og0b-1">
          <mxGeometry width="50" height="50" relative="1" as="geometry">
            <mxPoint x="170" y="560" as="sourcePoint" />
            <mxPoint x="420" y="470" as="targetPoint" />
          </mxGeometry>
        </mxCell>
        <mxCell id="q-2I_O6ID9gLPZa3Og0b-77" value="" style="endArrow=none;html=1;rounded=0;" edge="1" parent="1" source="q-2I_O6ID9gLPZa3Og0b-52" target="q-2I_O6ID9gLPZa3Og0b-1">
          <mxGeometry width="50" height="50" relative="1" as="geometry">
            <mxPoint x="370" y="520" as="sourcePoint" />
            <mxPoint x="420" y="470" as="targetPoint" />
          </mxGeometry>
        </mxCell>
        <mxCell id="q-2I_O6ID9gLPZa3Og0b-78" value="" style="endArrow=none;html=1;rounded=0;entryX=0;entryY=0.25;entryDx=0;entryDy=0;exitX=1;exitY=0.5;exitDx=0;exitDy=0;" edge="1" parent="1" source="q-2I_O6ID9gLPZa3Og0b-46" target="q-2I_O6ID9gLPZa3Og0b-2">
          <mxGeometry width="50" height="50" relative="1" as="geometry">
            <mxPoint x="460" y="40" as="sourcePoint" />
            <mxPoint x="510" y="-10" as="targetPoint" />
          </mxGeometry>
        </mxCell>
        <mxCell id="q-2I_O6ID9gLPZa3Og0b-79" value="" style="endArrow=none;html=1;rounded=0;entryX=0;entryY=0.25;entryDx=0;entryDy=0;exitX=1;exitY=1;exitDx=0;exitDy=0;" edge="1" parent="1" source="q-2I_O6ID9gLPZa3Og0b-47" target="q-2I_O6ID9gLPZa3Og0b-3">
          <mxGeometry width="50" height="50" relative="1" as="geometry">
            <mxPoint x="460" y="40" as="sourcePoint" />
            <mxPoint x="510" y="-10" as="targetPoint" />
          </mxGeometry>
        </mxCell>
        <mxCell id="q-2I_O6ID9gLPZa3Og0b-80" value="" style="endArrow=none;html=1;rounded=0;entryX=0;entryY=0.5;entryDx=0;entryDy=0;exitX=1;exitY=0;exitDx=0;exitDy=0;" edge="1" parent="1" source="q-2I_O6ID9gLPZa3Og0b-2" target="q-2I_O6ID9gLPZa3Og0b-49">
          <mxGeometry width="50" height="50" relative="1" as="geometry">
            <mxPoint x="460" y="40" as="sourcePoint" />
            <mxPoint x="510" y="-10" as="targetPoint" />
          </mxGeometry>
        </mxCell>
        <mxCell id="q-2I_O6ID9gLPZa3Og0b-81" value="" style="endArrow=none;html=1;rounded=0;entryX=0;entryY=1;entryDx=0;entryDy=0;exitX=1;exitY=0;exitDx=0;exitDy=0;" edge="1" parent="1" source="q-2I_O6ID9gLPZa3Og0b-3" target="q-2I_O6ID9gLPZa3Og0b-48">
          <mxGeometry width="50" height="50" relative="1" as="geometry">
            <mxPoint x="460" y="40" as="sourcePoint" />
            <mxPoint x="510" y="-10" as="targetPoint" />
          </mxGeometry>
        </mxCell>
        <mxCell id="q-2I_O6ID9gLPZa3Og0b-82" value="" style="endArrow=none;html=1;rounded=0;exitX=1;exitY=0.5;exitDx=0;exitDy=0;entryX=0;entryY=0.5;entryDx=0;entryDy=0;" edge="1" parent="1" source="q-2I_O6ID9gLPZa3Og0b-12" target="q-2I_O6ID9gLPZa3Og0b-2">
          <mxGeometry width="50" height="50" relative="1" as="geometry">
            <mxPoint x="460" y="90" as="sourcePoint" />
            <mxPoint x="510" y="40" as="targetPoint" />
          </mxGeometry>
        </mxCell>
        <mxCell id="q-2I_O6ID9gLPZa3Og0b-83" value="" style="endArrow=none;html=1;rounded=0;exitX=1;exitY=0.5;exitDx=0;exitDy=0;entryX=0;entryY=0.5;entryDx=0;entryDy=0;" edge="1" parent="1" source="q-2I_O6ID9gLPZa3Og0b-13" target="q-2I_O6ID9gLPZa3Og0b-3">
          <mxGeometry width="50" height="50" relative="1" as="geometry">
            <mxPoint x="460" y="90" as="sourcePoint" />
            <mxPoint x="510" y="40" as="targetPoint" />
          </mxGeometry>
        </mxCell>
        <mxCell id="q-2I_O6ID9gLPZa3Og0b-84" value="" style="endArrow=none;html=1;rounded=0;entryX=0;entryY=0.5;entryDx=0;entryDy=0;exitX=1;exitY=0.5;exitDx=0;exitDy=0;" edge="1" parent="1" source="q-2I_O6ID9gLPZa3Og0b-2" target="q-2I_O6ID9gLPZa3Og0b-35">
          <mxGeometry width="50" height="50" relative="1" as="geometry">
            <mxPoint x="460" y="90" as="sourcePoint" />
            <mxPoint x="510" y="40" as="targetPoint" />
          </mxGeometry>
        </mxCell>
        <mxCell id="q-2I_O6ID9gLPZa3Og0b-85" value="" style="endArrow=none;html=1;rounded=0;entryX=0;entryY=0.5;entryDx=0;entryDy=0;exitX=1;exitY=0.5;exitDx=0;exitDy=0;" edge="1" parent="1" source="q-2I_O6ID9gLPZa3Og0b-3" target="q-2I_O6ID9gLPZa3Og0b-34">
          <mxGeometry width="50" height="50" relative="1" as="geometry">
            <mxPoint x="460" y="90" as="sourcePoint" />
            <mxPoint x="510" y="40" as="targetPoint" />
          </mxGeometry>
        </mxCell>
        <mxCell id="q-2I_O6ID9gLPZa3Og0b-86" value="" style="endArrow=none;html=1;rounded=0;entryX=0;entryY=0.5;entryDx=0;entryDy=0;exitX=1;exitY=0.75;exitDx=0;exitDy=0;" edge="1" parent="1" source="q-2I_O6ID9gLPZa3Og0b-1" target="q-2I_O6ID9gLPZa3Og0b-40">
          <mxGeometry width="50" height="50" relative="1" as="geometry">
            <mxPoint x="460" y="90" as="sourcePoint" />
            <mxPoint x="510" y="40" as="targetPoint" />
          </mxGeometry>
        </mxCell>
        <mxCell id="q-2I_O6ID9gLPZa3Og0b-87" value="" style="endArrow=none;html=1;rounded=0;entryX=0;entryY=0.5;entryDx=0;entryDy=0;" edge="1" parent="1" target="q-2I_O6ID9gLPZa3Og0b-39">
          <mxGeometry width="50" height="50" relative="1" as="geometry">
            <mxPoint x="480" y="390" as="sourcePoint" />
            <mxPoint x="520" y="140" as="targetPoint" />
          </mxGeometry>
        </mxCell>
        <mxCell id="q-2I_O6ID9gLPZa3Og0b-88" value="" style="endArrow=none;html=1;rounded=0;exitX=1;exitY=0.5;exitDx=0;exitDy=0;entryX=0;entryY=1;entryDx=0;entryDy=0;" edge="1" parent="1" source="q-2I_O6ID9gLPZa3Og0b-29" target="q-2I_O6ID9gLPZa3Og0b-3">
          <mxGeometry width="50" height="50" relative="1" as="geometry">
            <mxPoint x="470" y="510" as="sourcePoint" />
            <mxPoint x="520" y="460" as="targetPoint" />
          </mxGeometry>
        </mxCell>
        <mxCell id="q-2I_O6ID9gLPZa3Og0b-89" value="" style="endArrow=none;html=1;rounded=0;exitX=1;exitY=0;exitDx=0;exitDy=0;entryX=0;entryY=0.5;entryDx=0;entryDy=0;" edge="1" parent="1" source="q-2I_O6ID9gLPZa3Og0b-65" target="q-2I_O6ID9gLPZa3Og0b-2">
          <mxGeometry width="50" height="50" relative="1" as="geometry">
            <mxPoint x="470" y="430" as="sourcePoint" />
            <mxPoint x="520" y="380" as="targetPoint" />
          </mxGeometry>
        </mxCell>
        <mxCell id="q-2I_O6ID9gLPZa3Og0b-90" value="" style="endArrow=none;html=1;rounded=0;entryX=0;entryY=0;entryDx=0;entryDy=0;" edge="1" parent="1" target="q-2I_O6ID9gLPZa3Og0b-51">
          <mxGeometry width="50" height="50" relative="1" as="geometry">
            <mxPoint x="480" y="210" as="sourcePoint" />
            <mxPoint x="520" y="380" as="targetPoint" />
          </mxGeometry>
        </mxCell>
        <mxCell id="q-2I_O6ID9gLPZa3Og0b-91" value="" style="endArrow=none;html=1;rounded=0;exitX=1;exitY=0.5;exitDx=0;exitDy=0;entryX=0.377;entryY=0.933;entryDx=0;entryDy=0;entryPerimeter=0;" edge="1" parent="1" source="q-2I_O6ID9gLPZa3Og0b-66" target="q-2I_O6ID9gLPZa3Og0b-3">
          <mxGeometry width="50" height="50" relative="1" as="geometry">
            <mxPoint x="470" y="430" as="sourcePoint" />
            <mxPoint x="520" y="380" as="targetPoint" />
          </mxGeometry>
        </mxCell>
        <mxCell id="q-2I_O6ID9gLPZa3Og0b-92" value="" style="endArrow=none;html=1;rounded=0;entryX=0;entryY=0.25;entryDx=0;entryDy=0;exitX=1;exitY=1;exitDx=0;exitDy=0;" edge="1" parent="1" source="q-2I_O6ID9gLPZa3Og0b-3" target="q-2I_O6ID9gLPZa3Og0b-53">
          <mxGeometry width="50" height="50" relative="1" as="geometry">
            <mxPoint x="450" y="410" as="sourcePoint" />
            <mxPoint x="520" y="380" as="targetPoint" />
          </mxGeometry>
        </mxCell>
      </root>
    </mxGraphModel>
  </diagram>
</mxfile>
